# 3ds Max Wavefront OBJ Exporter v0.97b - (c)2007 guruware
# 创建的文件:02.07.2020 04:44:03

mtllib IceLand.mtl

#
# object Island_03
#

v  -56.6734 3.4927 26.5470
v  -70.2614 3.4927 3.5766
v  -67.5127 -3.4927 3.5766
v  -54.6428 -3.4927 25.7086
v  -37.5821 3.4927 40.0961
v  -36.0520 -3.4927 38.6045
v  -18.9949 3.4927 52.5157
v  -18.1573 -3.4927 50.5613
v  1.0279 3.4927 50.3552
v  1.1195 -3.4927 48.4813
v  23.6259 3.4927 54.0509
v  22.8755 -3.4927 52.0393
v  45.2542 3.4927 47.1548
v  43.7854 -3.4927 45.5269
v  61.5104 3.4927 30.8799
v  58.8032 -3.4927 30.2864
v  -55.9979 -37.4772 3.5766
v  -46.0581 -33.0806 22.0224
v  -27.9468 -33.8412 32.3556
v  -14.6483 -37.4864 42.3739
v  1.5032 -37.4864 40.6311
v  19.7319 -37.4864 43.6123
v  35.4855 -35.3608 38.7069
v  50.3413 -33.0806 27.6298
v  -27.6682 -61.9748 3.5766
v  -27.1593 -52.0559 15.1599
v  4.4736 -80.1679 3.5766
v  2.2416 -69.2521 16.8290
v  15.8988 -50.6696 26.5954
v  22.6709 -50.4158 26.4706
v  3.5337 -51.1331 26.8233
v  -18.7675 -48.5326 29.9709
v  23.1946 -66.5337 19.8602
v  32.4292 -61.0237 18.8158
v  36.9191 -49.0731 22.0652
v  13.6164 -67.4454 15.4521
v  15.1201 -75.8420 3.5766
v  24.8422 -78.1043 3.5766
v  38.2741 -74.7260 3.5766
v  45.8064 -54.2801 3.5766
v  70.2461 3.4927 3.5766
v  67.7600 -3.4927 3.5766
v  57.3303 -37.4717 3.5766
v  -57.3565 3.4927 -23.0513
v  -55.3258 -3.4927 -22.2129
v  -36.0932 3.4927 -35.5471
v  -34.5630 -3.4927 -34.0555
v  -18.4691 3.4927 -47.6120
v  -17.6315 -3.4927 -45.6576
v  2.5014 3.4927 -52.2584
v  2.5930 -3.4927 -50.3846
v  30.1637 3.4927 -51.7654
v  29.4133 -3.4927 -49.7539
v  53.8865 3.4927 -43.0510
v  52.4176 -3.4927 -41.4231
v  65.7996 3.4927 -21.3579
v  63.3232 -3.4927 -20.0623
v  -46.7412 -33.0806 -18.5266
v  -26.4579 -33.8412 -27.8066
v  -14.1226 -37.4864 -37.4702
v  2.9766 -37.4864 -42.5343
v  26.2697 -37.4864 -41.3268
v  44.1178 -35.3608 -34.6031
v  54.8612 -33.0806 -17.4058
v  -27.1593 -52.0559 -8.0067
v  2.2416 -69.2521 -9.6757
v  22.6709 -50.4158 -19.3174
v  15.8988 -50.6696 -19.4422
v  3.5337 -51.1331 -19.6701
v  -18.7675 -48.5326 -22.8177
v  23.1946 -66.5337 -12.7069
v  34.3892 -49.0731 -7.7476
v  32.4292 -61.0237 -11.6625
v  13.6164 -67.4454 -8.2989
v  75.7208 0.9373 2.9284
v  72.4668 0.9373 -24.3326
v  65.2394 6.9102 -21.3389
v  67.8979 6.9102 2.9284
v  58.9090 0.9373 -47.6594
v  53.3774 6.9102 -42.1278
v  33.0224 0.9373 -58.0998
v  30.0287 6.9102 -50.8723
v  2.5839 0.9373 -58.2344
v  2.5839 6.9102 -50.4115
v  -21.0382 0.9373 -53.5357
v  -18.0445 6.9102 -46.3083
v  -41.0641 0.9373 -40.1548
v  -35.5325 6.9102 -34.6232
v  -63.8260 0.9373 -25.4674
v  -56.5986 6.9102 -22.4737
v  -75.7208 0.9373 3.4932
v  -67.8979 6.9102 3.4932
v  -62.9565 0.9373 28.4663
v  -55.7291 6.9102 25.4726
v  -40.4910 0.9373 43.1995
v  -34.9593 6.9102 37.6679
v  -20.4651 0.9373 56.5804
v  -17.4714 6.9102 49.3530
v  1.1075 0.9373 54.2527
v  1.1075 6.9102 46.4298
v  25.4545 0.9373 58.2344
v  22.4608 6.9102 51.0070
v  50.1987 0.9373 52.0478
v  44.6671 6.9102 46.5161
v  67.5161 0.9373 33.8952
v  60.2887 6.9102 30.9015
v  59.2985 8.6831 -18.8781
v  61.4675 8.6831 2.9284
v  48.8304 8.6831 -37.5808
v  27.5679 8.6831 -44.9314
v  2.5839 8.6831 -43.9811
v  -15.5837 8.6831 -40.3673
v  -30.9855 8.6831 -30.0762
v  -50.6577 8.6831 -20.0129
v  -61.4675 8.6831 3.4932
v  -49.7882 8.6831 23.0118
v  -30.4123 8.6831 33.1209
v  -15.0106 8.6831 43.4121
v  1.1075 8.6831 39.9994
v  20.0000 8.6831 45.0661
v  40.1201 8.6831 41.9692
v  54.3478 8.6831 28.4407
v  2.5839 8.6831 3.4932
# 123 vertices

vn -0.7104 -0.2984 0.6375
vn -0.9361 -0.3501 0.0352
vn -0.9394 -0.3401 0.0424
vn -0.6943 -0.2933 0.6571
vn -0.5429 -0.2792 0.7920
vn -0.5435 -0.2787 0.7918
vn -0.2372 -0.2880 0.9278
vn -0.2381 -0.2781 0.9306
vn -0.0259 -0.2593 0.9654
vn -0.0265 -0.2420 0.9699
vn 0.0800 -0.2786 0.9571
vn 0.0701 -0.2651 0.9617
vn 0.5021 -0.3047 0.8094
vn 0.4916 -0.2931 0.8200
vn 0.8118 -0.3357 0.4778
vn 0.8004 -0.3137 0.5108
vn -0.8237 -0.5659 0.0346
vn -0.6308 -0.4463 0.6347
vn -0.5358 -0.3575 0.7649
vn -0.2273 -0.4723 0.8516
vn -0.0151 -0.5177 0.8554
vn 0.0799 -0.5219 0.8492
vn 0.4195 -0.5020 0.7563
vn 0.7367 -0.4355 0.5173
vn -0.5556 -0.8314 0.0116
vn -0.4624 -0.6949 0.5507
vn -0.0634 -0.9980 -0.0000
vn -0.1063 -0.7041 0.7021
vn 0.0064 -0.6397 0.7686
vn 0.1521 -0.6121 0.7760
vn -0.0418 -0.6792 0.7327
vn -0.3190 -0.6625 0.6778
vn 0.0545 -0.6203 0.7825
vn 0.5061 -0.4599 0.7296
vn 0.5513 -0.5614 0.6172
vn 0.0055 -0.6802 0.7330
vn 0.0320 -0.9995 -0.0000
vn 0.0978 -0.9952 -0.0000
vn 0.6969 -0.7168 -0.0238
vn 0.8434 -0.5355 -0.0450
vn 0.9335 -0.3535 0.0599
vn 0.9432 -0.3253 0.0666
vn 0.8512 -0.5247 0.0141
vn -0.7111 -0.3041 -0.6339
vn -0.6927 -0.2984 -0.6566
vn -0.5116 -0.2743 -0.8143
vn -0.5136 -0.2736 -0.8133
vn -0.3836 -0.2837 -0.8789
vn -0.4038 -0.2729 -0.8732
vn -0.0965 -0.2719 -0.9575
vn -0.1019 -0.2551 -0.9615
vn 0.1814 -0.2815 -0.9423
vn 0.1841 -0.2683 -0.9456
vn 0.6200 -0.3272 -0.7131
vn 0.6270 -0.3151 -0.7124
vn 0.8869 -0.3393 -0.3136
vn 0.8956 -0.3188 -0.3103
vn -0.6215 -0.4659 -0.6298
vn -0.5080 -0.3842 -0.7709
vn -0.3592 -0.5322 -0.7666
vn -0.0726 -0.5665 -0.8208
vn 0.1745 -0.5950 -0.7846
vn 0.5415 -0.5870 -0.6019
vn 0.7885 -0.5156 -0.3353
vn -0.4500 -0.7198 -0.5286
vn -0.1063 -0.7041 -0.7021
vn 0.2490 -0.6909 -0.6787
vn 0.0227 -0.7058 -0.7081
vn -0.0472 -0.7373 -0.6739
vn -0.3285 -0.7034 -0.6303
vn 0.1057 -0.5900 -0.8005
vn 0.6330 -0.5368 -0.5578
vn 0.5883 -0.3014 -0.7503
vn 0.0055 -0.6802 -0.7330
vn 0.6072 0.7935 0.0404
vn 0.5752 0.7945 -0.1948
vn 0.4417 0.8857 -0.1432
vn 0.4624 0.8859 0.0363
vn 0.3946 0.8024 -0.4477
vn 0.3018 0.8838 -0.3575
vn 0.1249 0.7877 -0.6033
vn 0.0799 0.8822 -0.4641
vn -0.0588 0.7872 -0.6139
vn -0.0485 0.8870 -0.4593
vn -0.2322 0.7948 -0.5607
vn -0.1772 0.8863 -0.4279
vn -0.3406 0.7729 -0.5354
vn -0.2469 0.8852 -0.3942
vn -0.4860 0.7878 -0.3783
vn -0.3578 0.8742 -0.3282
vn -0.5870 0.8093 0.0207
vn -0.4683 0.8832 0.0246
vn -0.4772 0.7802 0.4045
vn -0.3477 0.8721 0.3442
vn -0.3426 0.7735 0.5333
vn -0.2483 0.8854 0.3930
vn -0.1524 0.8011 0.5789
vn -0.0973 0.8812 0.4625
vn -0.0194 0.7732 0.6338
vn -0.0128 0.8924 0.4510
vn 0.0374 0.7737 0.6325
vn -0.0029 0.8718 0.4898
vn 0.3208 0.7897 0.5229
vn 0.2236 0.8773 0.4247
vn 0.5308 0.7961 0.2908
vn 0.4040 0.8839 0.2356
vn 0.1448 0.9885 -0.0447
vn 0.1497 0.9886 0.0137
vn 0.1007 0.9871 -0.1245
vn 0.0206 0.9881 -0.1524
vn -0.0168 0.9895 -0.1435
vn -0.0576 0.9886 -0.1390
vn -0.0721 0.9904 -0.1178
vn -0.1154 0.9855 -0.1246
vn -0.1650 0.9862 0.0116
vn -0.1100 0.9856 0.1281
vn -0.0726 0.9904 0.1177
vn -0.0248 0.9863 0.1631
vn -0.0031 0.9923 0.1234
vn -0.0133 0.9863 0.1645
vn 0.0664 0.9863 0.1510
vn 0.1326 0.9877 0.0825
vn 0.0000 1.0000 -0.0000
# 123 vertex normals

vt 0.1178 0.3556 0.0000
vt 0.0270 0.3556 0.0000
vt 0.0446 0.3303 0.0000
vt 0.1313 0.3303 0.0000
vt 0.2037 0.3556 0.0000
vt 0.2137 0.3303 0.0000
vt 0.2881 0.3556 0.0000
vt 0.2941 0.3303 0.0000
vt 0.3685 0.3556 0.0000
vt 0.3701 0.3303 0.0000
vt 0.4596 0.3556 0.0000
vt 0.4562 0.3303 0.0000
vt 0.5444 0.3556 0.0000
vt 0.5369 0.3303 0.0000
vt 0.6524 0.3556 0.0000
vt 0.6322 0.3303 0.0000
vt 0.1290 0.1497 0.0000
vt 0.1874 0.2046 0.0000
vt 0.2616 0.2260 0.0000
vt 0.3219 0.2349 0.0000
vt 0.3787 0.2340 0.0000
vt 0.4426 0.2415 0.0000
vt 0.4966 0.2348 0.0000
vt 0.5798 0.2068 0.0000
vt 0.2542 0.0713 0.0000
vt 0.2619 0.1289 0.0000
vt 0.3882 0.0163 0.0000
vt 0.3834 0.0817 0.0000
vt 0.4369 0.1608 0.0000
vt 0.4644 0.1632 0.0000
vt 0.3882 0.1586 0.0000
vt 0.3053 0.1753 0.0000
vt 0.4637 0.0976 0.0000
vt 0.4990 0.1118 0.0000
vt 0.5275 0.1482 0.0000
vt 0.4273 0.0831 0.0000
vt 0.4343 0.0264 0.0000
vt 0.4760 0.0230 0.0000
vt 0.5312 0.0383 0.0000
vt 0.5795 0.1101 0.0000
vt 0.7188 0.3556 0.0000
vt 0.7034 0.3303 0.0000
vt 0.6336 0.1695 0.0000
vt 0.7828 0.6530 0.0000
vt 0.7683 0.7916 0.0000
vt 0.7233 0.7743 0.0000
vt 0.7346 0.6546 0.0000
vt 0.7002 0.9110 0.0000
vt 0.6663 0.8772 0.0000
vt 0.5701 0.9676 0.0000
vt 0.5524 0.9227 0.0000
vt 0.4169 0.9720 0.0000
vt 0.4169 0.9235 0.0000
vt 0.2974 0.9498 0.0000
vt 0.3148 0.9048 0.0000
vt 0.1943 0.8859 0.0000
vt 0.2266 0.8495 0.0000
vt 0.0796 0.8112 0.0000
vt 0.1225 0.7899 0.0000
vt 0.0175 0.6640 0.0000
vt 0.0651 0.6635 0.0000
vt 0.0787 0.5343 0.0000
vt 0.1223 0.5545 0.0000
vt 0.1893 0.4557 0.0000
vt 0.2228 0.4910 0.0000
vt 0.2908 0.3887 0.0000
vt 0.3088 0.4331 0.0000
vt 0.3999 0.3943 0.0000
vt 0.4012 0.4432 0.0000
vt 0.5222 0.3755 0.0000
vt 0.5071 0.4213 0.0000
vt 0.6480 0.4060 0.0000
vt 0.6165 0.4422 0.0000
vt 0.7381 0.4971 0.0000
vt 0.6946 0.5175 0.0000
vt 0.6932 0.7624 0.0000
vt 0.7021 0.6552 0.0000
vt 0.6433 0.8550 0.0000
vt 0.5395 0.8931 0.0000
vt 0.4163 0.8908 0.0000
vt 0.3265 0.8746 0.0000
vt 0.2495 0.8256 0.0000
vt 0.1520 0.7774 0.0000
vt 0.0968 0.6629 0.0000
vt 0.1523 0.5661 0.0000
vt 0.2465 0.5141 0.0000
vt 0.3218 0.4623 0.0000
vt 0.4019 0.4768 0.0000
vt 0.4950 0.4513 0.0000
vt 0.5942 0.4653 0.0000
vt 0.6651 0.5305 0.0000
vt 0.4119 0.6570 0.0000
# 92 texture coords

o Island_03
g Island_03
usemtl Material__25
s off
f 1/1/1 2/2/2 3/3/3 4/4/4 
f 5/5/5 1/1/1 4/4/4 6/6/6 
f 7/7/7 5/5/5 6/6/6 8/8/8 
f 9/9/9 7/7/7 8/8/8 10/10/10 
f 11/11/11 9/9/9 10/10/10 12/12/12 
f 13/13/13 11/11/11 12/12/12 14/14/14 
f 15/15/15 13/13/13 14/14/14 16/16/16 
f 4/4/4 3/3/3 17/17/17 18/18/18 
f 6/6/6 4/4/4 18/18/18 19/19/19 
f 8/8/8 6/6/6 19/19/19 20/20/20 
f 10/10/10 8/8/8 20/20/20 21/21/21 
f 12/12/12 10/10/10 21/21/21 22/22/22 
f 14/14/14 12/12/12 22/22/22 23/23/23 
f 16/16/16 14/14/14 23/23/23 24/24/24 
f 18/18/18 17/17/17 25/25/25 26/26/26 
f 26/26/26 25/25/25 27/27/27 28/28/28 
f 22/22/22 29/29/29 30/30/30 23/23/23 
f 31/31/31 21/21/21 20/20/20 32/32/32 
f 32/32/32 26/26/26 28/28/28 31/31/31 
f 33/33/33 34/34/34 35/35/35 30/30/30 
f 32/32/32 20/20/20 19/19/19 
f 18/18/18 32/32/32 19/19/19 
f 23/23/23 35/35/35 24/24/24 
f 18/18/18 26/26/26 32/32/32 
f 36/36/36 28/28/28 27/27/27 37/37/37 
f 30/30/30 29/29/29 36/36/36 33/33/33 
f 33/33/33 36/36/36 37/37/37 38/38/38 
f 35/35/35 34/34/34 39/39/39 40/40/40 
f 23/23/23 30/30/30 35/35/35 
f 22/22/22 21/21/21 31/31/31 29/29/29 
f 29/29/29 31/31/31 28/28/28 36/36/36 
f 41/41/41 15/15/15 16/16/16 42/42/42 
f 42/42/42 16/16/16 24/24/24 43/43/43 
f 43/43/43 24/24/24 35/35/35 40/40/40 
f 39/39/39 34/34/34 33/33/33 38/38/38 
f 44/1/44 45/4/45 3/3/3 2/2/2 
f 46/5/46 47/6/47 45/4/45 44/1/44 
f 48/7/48 49/8/49 47/6/47 46/5/46 
f 50/9/50 51/10/51 49/8/49 48/7/48 
f 52/11/52 53/12/53 51/10/51 50/9/50 
f 54/13/54 55/14/55 53/12/53 52/11/52 
f 56/15/56 57/16/57 55/14/55 54/13/54 
f 45/4/45 58/18/58 17/17/17 3/3/3 
f 47/6/47 59/19/59 58/18/58 45/4/45 
f 49/8/49 60/20/60 59/19/59 47/6/47 
f 51/10/51 61/21/61 60/20/60 49/8/49 
f 53/12/53 62/22/62 61/21/61 51/10/51 
f 55/14/55 63/23/63 62/22/62 53/12/53 
f 57/16/57 64/24/64 63/23/63 55/14/55 
f 58/18/58 65/26/65 25/25/25 17/17/17 
f 65/26/65 66/28/66 27/27/27 25/25/25 
f 62/22/62 63/23/63 67/30/67 68/29/68 
f 69/31/69 70/32/70 60/20/60 61/21/61 
f 70/32/70 69/31/69 66/28/66 65/26/65 
f 71/33/71 67/30/67 72/35/72 73/34/73 
f 70/32/70 59/19/59 60/20/60 
f 58/18/58 59/19/59 70/32/70 
f 63/23/63 64/24/64 72/35/72 
f 58/18/58 70/32/70 65/26/65 
f 74/36/74 37/37/37 27/27/27 66/28/66 
f 67/30/67 71/33/71 74/36/74 68/29/68 
f 71/33/71 38/38/38 37/37/37 74/36/74 
f 72/35/72 40/40/40 39/39/39 73/34/73 
f 63/23/63 72/35/72 67/30/67 
f 62/22/62 68/29/68 69/31/69 61/21/61 
f 68/29/68 74/36/74 66/28/66 69/31/69 
f 41/41/41 42/42/42 57/16/57 56/15/56 
f 42/42/42 43/43/43 64/24/64 57/16/57 
f 43/43/43 40/40/40 72/35/72 64/24/64 
f 39/39/39 38/38/38 71/33/71 73/34/73 
f 75/44/75 76/45/76 77/46/77 78/47/78 
f 76/45/76 79/48/79 80/49/80 77/46/77 
f 79/48/79 81/50/81 82/51/82 80/49/80 
f 81/50/81 83/52/83 84/53/84 82/51/82 
f 83/52/83 85/54/85 86/55/86 84/53/84 
f 85/54/85 87/56/87 88/57/88 86/55/86 
f 87/56/87 89/58/89 90/59/90 88/57/88 
f 89/58/89 91/60/91 92/61/92 90/59/90 
f 91/60/91 93/62/93 94/63/94 92/61/92 
f 93/62/93 95/64/95 96/65/96 94/63/94 
f 95/64/95 97/66/97 98/67/98 96/65/96 
f 97/66/97 99/68/99 100/69/100 98/67/98 
f 99/68/99 101/70/101 102/71/102 100/69/100 
f 101/70/101 103/72/103 104/73/104 102/71/102 
f 103/72/103 105/74/105 106/75/106 104/73/104 
f 105/74/105 75/44/75 78/47/78 106/75/106 
f 78/47/78 77/46/77 107/76/107 108/77/108 
f 77/46/77 80/49/80 109/78/109 107/76/107 
f 80/49/80 82/51/82 110/79/110 109/78/109 
f 82/51/82 84/53/84 111/80/111 110/79/110 
f 84/53/84 86/55/86 112/81/112 111/80/111 
f 86/55/86 88/57/88 113/82/113 112/81/112 
f 88/57/88 90/59/90 114/83/114 113/82/113 
f 90/59/90 92/61/92 115/84/115 114/83/114 
f 92/61/92 94/63/94 116/85/116 115/84/115 
f 94/63/94 96/65/96 117/86/117 116/85/116 
f 96/65/96 98/67/98 118/87/118 117/86/117 
f 98/67/98 100/69/100 119/88/119 118/87/118 
f 100/69/100 102/71/102 120/89/120 119/88/119 
f 102/71/102 104/73/104 121/90/121 120/89/120 
f 104/73/104 106/75/106 122/91/122 121/90/121 
f 106/75/106 78/47/78 108/77/108 122/91/122 
f 108/77/108 107/76/107 123/92/123 
f 107/76/107 109/78/109 123/92/123 
f 109/78/109 110/79/110 123/92/123 
f 110/79/110 111/80/111 123/92/123 
f 111/80/111 112/81/112 123/92/123 
f 112/81/112 113/82/113 123/92/123 
f 113/82/113 114/83/114 123/92/123 
f 114/83/114 115/84/115 123/92/123 
f 115/84/115 116/85/116 123/92/123 
f 116/85/116 117/86/117 123/92/123 
f 117/86/117 118/87/118 123/92/123 
f 118/87/118 119/88/119 123/92/123 
f 119/88/119 120/89/120 123/92/123 
f 120/89/120 121/90/121 123/92/123 
f 121/90/121 122/91/122 123/92/123 
f 122/91/122 108/77/108 123/92/123 
# 92 polygons - 26 triangles

